<?xml version="1.0" encoding="UTF-8" standalone="no"?>
<!-- Created with Inkscape (http://www.inkscape.org/) -->

<svg
   xmlns:dc="http://purl.org/dc/elements/1.1/"
   xmlns:cc="http://creativecommons.org/ns#"
   xmlns:rdf="http://www.w3.org/1999/02/22-rdf-syntax-ns#"
   xmlns:svg="http://www.w3.org/2000/svg"
   xmlns="http://www.w3.org/2000/svg"
   xmlns:xlink="http://www.w3.org/1999/xlink"
   xmlns:sodipodi="http://sodipodi.sourceforge.net/DTD/sodipodi-0.dtd"
   xmlns:inkscape="http://www.inkscape.org/namespaces/inkscape"
   width="178mm"
   height="134.00005mm"
   viewBox="0 0 630.70866 474.8033"
   id="svg5873"
   version="1.1"
   inkscape:version="0.91 r13725"
   sodipodi:docname="case-layered-v0.4-export.svg">
  <defs
     id="defs5875" />
  <sodipodi:namedview
     id="base"
     pagecolor="#ffffff"
     bordercolor="#666666"
     borderopacity="1.0"
     inkscape:pageopacity="0.0"
     inkscape:pageshadow="2"
     inkscape:zoom="1.4107441"
     inkscape:cx="315.35433"
     inkscape:cy="237.40161"
     inkscape:document-units="mm"
     inkscape:current-layer="layer6"
     showgrid="false"
     inkscape:window-width="1920"
     inkscape:window-height="1056"
     inkscape:window-x="0"
     inkscape:window-y="24"
     inkscape:window-maximized="1"
     fit-margin-top="2"
     fit-margin-left="2"
     fit-margin-right="2"
     fit-margin-bottom="2" />
  <metadata
     id="metadata5878">
    <rdf:RDF>
      <cc:Work
         rdf:about="">
        <dc:format>image/svg+xml</dc:format>
        <dc:type
           rdf:resource="http://purl.org/dc/dcmitype/StillImage" />
        <dc:title></dc:title>
      </cc:Work>
    </rdf:RDF>
  </metadata>
  <g
     inkscape:groupmode="layer"
     id="layer6"
     inkscape:label="Material"
     style="display:inline"
     transform="translate(0,1.4388532e-6)"
     sodipodi:insensitive="true">
    <path
       style="fill:none;fill-opacity:0.24747476;stroke:#ff0000;stroke-width:0.35433072;stroke-miterlimit:4;stroke-dasharray:none;stroke-opacity:1"
       d="m 7.0859375,7.0859375 0,53.1503905 13.8203125,0 0,42.519532 -13.8203125,0 0,53.15039 148.8203125,0 0,-148.8203125 -148.8203125,0 z m 155.9062525,0 0,53.1503905 13.81836,0 0,-24.09375 121.53515,0 0,59.527344 13.46485,0 0,-88.5839845 -148.81836,0 z m 155.90625,0 0,53.1503905 13.81836,0 0,-24.09375 121.53515,0 0,90.707032 -121.53515,0 0,-24.09375 -13.81836,0 0,53.15039 148.81836,0 0,-148.8203125 -148.81836,0 z m 155.90429,0 0,53.1503905 13.81836,0 0,42.519532 -13.81836,0 0,53.15039 148.81836,0 0,-148.8203125 -148.81836,0 z M 23.03125,17.716797 a 5.3149557,5.3149557 0 0 1 5.314453,5.314453 5.3149557,5.3149557 0 0 1 -5.314453,5.314453 5.3149557,5.3149557 0 0 1 -5.314453,-5.314453 5.3149557,5.3149557 0 0 1 5.314453,-5.314453 z m 116.92969,0 a 5.3149557,5.3149557 0 0 1 5.31445,5.314453 5.3149557,5.3149557 0 0 1 -5.31445,5.314453 5.3149557,5.3149557 0 0 1 -5.31446,-5.314453 5.3149557,5.3149557 0 0 1 5.31446,-5.314453 z m 38.97656,0 a 5.3149557,5.3149557 0 0 1 5.31445,5.314453 5.3149557,5.3149557 0 0 1 -5.31445,5.314453 5.3149557,5.3149557 0 0 1 -5.31641,-5.314453 5.3149557,5.3149557 0 0 1 5.31641,-5.314453 z m 116.92773,0 a 5.3149557,5.3149557 0 0 1 5.31641,5.314453 5.3149557,5.3149557 0 0 1 -5.31641,5.314453 5.3149557,5.3149557 0 0 1 -5.31445,-5.314453 5.3149557,5.3149557 0 0 1 5.31445,-5.314453 z m 38.97657,0 a 5.3149557,5.3149557 0 0 1 5.3164,5.314453 5.3149557,5.3149557 0 0 1 -5.3164,5.314453 5.3149557,5.3149557 0 0 1 -5.31446,-5.314453 5.3149557,5.3149557 0 0 1 5.31446,-5.314453 z m 116.92968,0 a 5.3149557,5.3149557 0 0 1 5.31446,5.314453 5.3149557,5.3149557 0 0 1 -5.31446,5.314453 5.3149557,5.3149557 0 0 1 -5.31445,-5.314453 5.3149557,5.3149557 0 0 1 5.31445,-5.314453 z m 38.97657,0 a 5.3149557,5.3149557 0 0 1 5.31445,5.314453 5.3149557,5.3149557 0 0 1 -5.31445,5.314453 5.3149557,5.3149557 0 0 1 -5.31446,-5.314453 5.3149557,5.3149557 0 0 1 5.31446,-5.314453 z m 116.92968,0 a 5.3149557,5.3149557 0 0 1 5.31446,5.314453 5.3149557,5.3149557 0 0 1 -5.31446,5.314453 5.3149557,5.3149557 0 0 1 -5.3164,-5.314453 5.3149557,5.3149557 0 0 1 5.3164,-5.314453 z M 46.0625,36.142578 l 74.05469,0 0,9.566406 -74.05469,0 0,-9.566406 z m 12.402344,19.132813 59.527346,0 0,52.441409 -59.527346,0 0,-52.441409 z m 104.527346,47.480469 0,53.15039 148.81836,0 0,-49.60742 -13.46485,0 0,20.55078 -121.53515,0 0,-24.09375 -13.81836,0 z M 46.0625,117.2832 l 74.05469,0 0,9.56641 -74.05469,0 0,-9.56641 z m 457.08789,2.48047 a 3.5433071,3.5433071 0 0 1 3.54297,3.54297 3.5433071,3.5433071 0 0 1 -3.54297,3.54297 3.5433071,3.5433071 0 0 1 -3.54492,-3.54297 3.5433071,3.5433071 0 0 1 3.54492,-3.54297 z M 23.03125,134.64648 a 5.3149557,5.3149557 0 0 1 5.314453,5.31446 5.3149557,5.3149557 0 0 1 -5.314453,5.31445 5.3149557,5.3149557 0 0 1 -5.314453,-5.31445 5.3149557,5.3149557 0 0 1 5.314453,-5.31446 z m 116.92969,0 a 5.3149557,5.3149557 0 0 1 5.31445,5.31446 5.3149557,5.3149557 0 0 1 -5.31445,5.31445 5.3149557,5.3149557 0 0 1 -5.31446,-5.31445 5.3149557,5.3149557 0 0 1 5.31446,-5.31446 z m 38.97656,0 a 5.3149557,5.3149557 0 0 1 5.31445,5.31446 5.3149557,5.3149557 0 0 1 -5.31445,5.31445 5.3149557,5.3149557 0 0 1 -5.31641,-5.31445 5.3149557,5.3149557 0 0 1 5.31641,-5.31446 z m 116.92773,0 a 5.3149557,5.3149557 0 0 1 5.31641,5.31446 5.3149557,5.3149557 0 0 1 -5.31641,5.31445 5.3149557,5.3149557 0 0 1 -5.31445,-5.31445 5.3149557,5.3149557 0 0 1 5.31445,-5.31446 z m 38.97657,0 a 5.3149557,5.3149557 0 0 1 5.3164,5.31446 5.3149557,5.3149557 0 0 1 -5.3164,5.31445 5.3149557,5.3149557 0 0 1 -5.31446,-5.31445 5.3149557,5.3149557 0 0 1 5.31446,-5.31446 z m 116.92968,0 a 5.3149557,5.3149557 0 0 1 5.31446,5.31446 5.3149557,5.3149557 0 0 1 -5.31446,5.31445 5.3149557,5.3149557 0 0 1 -5.31445,-5.31445 5.3149557,5.3149557 0 0 1 5.31445,-5.31446 z m 38.97657,0 a 5.3149557,5.3149557 0 0 1 5.31445,5.31446 5.3149557,5.3149557 0 0 1 -5.31445,5.31445 5.3149557,5.3149557 0 0 1 -5.31446,-5.31445 5.3149557,5.3149557 0 0 1 5.31446,-5.31446 z m 116.92968,0 a 5.3149557,5.3149557 0 0 1 5.31446,5.31446 5.3149557,5.3149557 0 0 1 -5.31446,5.31445 5.3149557,5.3149557 0 0 1 -5.3164,-5.31445 5.3149557,5.3149557 0 0 1 5.3164,-5.31446 z m -600.5917925,28.34571 0,148.81836 42.5195315,0 0,-29.05469 -28.345703,0 0,-17.7168 106.298824,0 0,-17.71679 14.17383,0 0,17.71679 0,17.7168 -46.062498,0 0,29.05469 60.236328,0 0,-148.81836 -148.8203125,0 z m 155.9062525,0 0,148.81836 148.81836,0 0,-148.81836 -148.81836,0 z m 155.90625,0 0,148.81836 148.81836,0 0,-148.81836 -148.81836,0 z m 155.90429,0 0,148.81836 148.81836,0 0,-148.81836 -148.81836,0 z M 23.03125,173.62305 a 5.3149557,5.3149557 0 0 1 5.314453,5.31445 5.3149557,5.3149557 0 0 1 -5.314453,5.31445 5.3149557,5.3149557 0 0 1 -5.314453,-5.31445 5.3149557,5.3149557 0 0 1 5.314453,-5.31445 z m 116.92969,0 a 5.3149557,5.3149557 0 0 1 5.31445,5.31445 5.3149557,5.3149557 0 0 1 -5.31445,5.31445 5.3149557,5.3149557 0 0 1 -5.31446,-5.31445 5.3149557,5.3149557 0 0 1 5.31446,-5.31445 z m 38.97656,0 a 5.3149557,5.3149557 0 0 1 5.31445,5.31445 5.3149557,5.3149557 0 0 1 -5.31445,5.31445 5.3149557,5.3149557 0 0 1 -5.31641,-5.31445 5.3149557,5.3149557 0 0 1 5.31641,-5.31445 z m 116.92773,0 a 5.3149557,5.3149557 0 0 1 5.31641,5.31445 5.3149557,5.3149557 0 0 1 -5.31641,5.31445 5.3149557,5.3149557 0 0 1 -5.31445,-5.31445 5.3149557,5.3149557 0 0 1 5.31445,-5.31445 z m 38.97657,0 a 5.3149557,5.3149557 0 0 1 5.3164,5.31445 5.3149557,5.3149557 0 0 1 -5.3164,5.31445 5.3149557,5.3149557 0 0 1 -5.31446,-5.31445 5.3149557,5.3149557 0 0 1 5.31446,-5.31445 z m 116.92968,0 a 5.3149557,5.3149557 0 0 1 5.31446,5.31445 5.3149557,5.3149557 0 0 1 -5.31446,5.31445 5.3149557,5.3149557 0 0 1 -5.31445,-5.31445 5.3149557,5.3149557 0 0 1 5.31445,-5.31445 z m 38.97657,0 a 5.3149557,5.3149557 0 0 1 5.31445,5.31445 5.3149557,5.3149557 0 0 1 -5.31445,5.31445 5.3149557,5.3149557 0 0 1 -5.31446,-5.31445 5.3149557,5.3149557 0 0 1 5.31446,-5.31445 z m 116.92968,0 a 5.3149557,5.3149557 0 0 1 5.31446,5.31445 5.3149557,5.3149557 0 0 1 -5.31446,5.31445 5.3149557,5.3149557 0 0 1 -5.3164,-5.31445 5.3149557,5.3149557 0 0 1 5.3164,-5.31445 z m -586.201168,18.42383 120.472658,0 0,21.25976 -120.472658,0 0,-21.25976 z m 155.333988,0 120.47265,0 0,90.70898 -120.47265,0 0,-90.70898 z m 155.90625,0 101.69336,0 0,90.70898 -101.69336,0 0,-90.70898 z m 181.0625,0 74.05468,0 0,9.5664 -74.05468,0 0,-9.5664 z m 0,18.77929 74.05468,0 0,53.15039 -74.05468,0 0,-53.15039 z m 0,62.36328 74.05468,0 0,9.56641 -74.05468,0 0,-9.56641 z M 23.03125,290.55078 a 5.3149557,5.3149557 0 0 1 5.314453,5.31445 5.3149557,5.3149557 0 0 1 -5.314453,5.31641 5.3149557,5.3149557 0 0 1 -5.314453,-5.31641 5.3149557,5.3149557 0 0 1 5.314453,-5.31445 z m 116.92969,0 a 5.3149557,5.3149557 0 0 1 5.31445,5.31641 5.3149557,5.3149557 0 0 1 -5.31445,5.31445 5.3149557,5.3149557 0 0 1 -5.31446,-5.31445 5.3149557,5.3149557 0 0 1 5.31446,-5.31641 z m 38.97656,0 a 5.3149557,5.3149557 0 0 1 5.31445,5.31445 5.3149557,5.3149557 0 0 1 -5.31445,5.31641 5.3149557,5.3149557 0 0 1 -5.31641,-5.31641 5.3149557,5.3149557 0 0 1 5.31641,-5.31445 z m 116.57422,0 a 5.3149557,5.3149557 0 0 1 5.31445,5.31641 5.3149557,5.3149557 0 0 1 -5.31445,5.31445 5.3149557,5.3149557 0 0 1 -5.31445,-5.31445 5.3149557,5.3149557 0 0 1 5.31445,-5.31641 z m 39.33008,0 a 5.3149557,5.3149557 0 0 1 5.3164,5.31445 5.3149557,5.3149557 0 0 1 -5.3164,5.31641 5.3149557,5.3149557 0 0 1 -5.31446,-5.31641 5.3149557,5.3149557 0 0 1 5.31446,-5.31445 z m 116.92968,0 a 5.3149557,5.3149557 0 0 1 5.31446,5.31445 5.3149557,5.3149557 0 0 1 -5.31446,5.31641 5.3149557,5.3149557 0 0 1 -5.31445,-5.31641 5.3149557,5.3149557 0 0 1 5.31445,-5.31445 z m 38.97657,0 a 5.3149557,5.3149557 0 0 1 5.31445,5.31445 5.3149557,5.3149557 0 0 1 -5.31445,5.31641 5.3149557,5.3149557 0 0 1 -5.31446,-5.31641 5.3149557,5.3149557 0 0 1 5.31446,-5.31445 z m 116.92968,0 a 5.3149557,5.3149557 0 0 1 5.31446,5.31445 5.3149557,5.3149557 0 0 1 -5.31446,5.31641 5.3149557,5.3149557 0 0 1 -5.3164,-5.31641 5.3149557,5.3149557 0 0 1 5.3164,-5.31445 z m -600.5917925,28.34766 0,148.81836 148.8203125,0 0,-148.81836 -148.8203125,0 z m 155.9062525,0 0,148.81836 148.81836,0 0,-148.81836 -148.81836,0 z m 155.90625,0 0,148.81836 148.81836,0 0,-148.81836 -148.81836,0 z m 155.90429,0 0,148.81836 42.51954,0 0,-31.35742 -4.78321,0 0,-7.0879 -7.08594,0 0,7.0879 -7.08789,0 -7.08593,0 0,-35.4336 7.08593,0 0,-15.23633 -7.08593,0 0,-35.43359 7.08593,0 7.08789,0 0,7.08594 7.08594,0 0,-9.38868 73.34766,0 0,9.38868 7.08594,0 0,-7.08594 7.08593,0 7.08789,0 0,35.43359 -7.08789,0 0,15.23633 7.08789,0 0,35.4336 -7.08789,0 -7.08593,0 0,-7.0879 -7.08594,0 0,7.0879 -22.5,0 0,31.35742 60.23437,0 0,-148.81836 -148.81836,0 z m -451.77148,10.6289 a 5.3149557,5.3149557 0 0 1 5.314453,5.31446 5.3149557,5.3149557 0 0 1 -5.314453,5.3164 5.3149557,5.3149557 0 0 1 -5.314453,-5.3164 5.3149557,5.3149557 0 0 1 5.314453,-5.31446 z m 116.92969,0 a 5.3149557,5.3149557 0 0 1 5.31445,5.31446 5.3149557,5.3149557 0 0 1 -5.31445,5.3164 5.3149557,5.3149557 0 0 1 -5.31446,-5.3164 5.3149557,5.3149557 0 0 1 5.31446,-5.31446 z m 38.97656,0 a 5.3149557,5.3149557 0 0 1 5.31445,5.31446 5.3149557,5.3149557 0 0 1 -5.31445,5.3164 5.3149557,5.3149557 0 0 1 -5.31641,-5.3164 5.3149557,5.3149557 0 0 1 5.31641,-5.31446 z m 116.92773,0 a 5.3149557,5.3149557 0 0 1 5.31641,5.31446 5.3149557,5.3149557 0 0 1 -5.31641,5.3164 5.3149557,5.3149557 0 0 1 -5.31445,-5.3164 5.3149557,5.3149557 0 0 1 5.31445,-5.31446 z m 38.97657,0 a 5.3149557,5.3149557 0 0 1 5.3164,5.31446 5.3149557,5.3149557 0 0 1 -5.3164,5.3164 5.3149557,5.3149557 0 0 1 -5.31446,-5.3164 5.3149557,5.3149557 0 0 1 5.31446,-5.31446 z m 116.92968,0 a 5.3149557,5.3149557 0 0 1 5.31446,5.31446 5.3149557,5.3149557 0 0 1 -5.31446,5.3164 5.3149557,5.3149557 0 0 1 -5.31445,-5.3164 5.3149557,5.3149557 0 0 1 5.31445,-5.31446 z m 38.97657,0 a 5.3149557,5.3149557 0 0 1 5.31445,5.31446 5.3149557,5.3149557 0 0 1 -5.31445,5.3164 5.3149557,5.3149557 0 0 1 -5.31446,-5.3164 5.3149557,5.3149557 0 0 1 5.31446,-5.31446 z m 116.92968,0 a 5.3149557,5.3149557 0 0 1 5.31446,5.31446 5.3149557,5.3149557 0 0 1 -5.31446,5.3164 5.3149557,5.3149557 0 0 1 -5.3164,-5.3164 5.3149557,5.3149557 0 0 1 5.3164,-5.31446 z m -430.51171,18.42578 120.47265,0 0,90.70899 -120.47265,0 0,-90.70899 z m 155.90429,0 120.47266,0 0,90.70899 -120.47266,0 0,-90.70899 z m -291.968748,3.54297 82.205078,0 0,82.20508 -82.205078,0 0,-82.20508 z M 23.03125,446.45703 a 5.3149557,5.3149557 0 0 1 5.314453,5.31445 5.3149557,5.3149557 0 0 1 -5.314453,5.31446 5.3149557,5.3149557 0 0 1 -5.314453,-5.31446 5.3149557,5.3149557 0 0 1 5.314453,-5.31445 z m 116.92969,0 a 5.3149557,5.3149557 0 0 1 5.31445,5.31445 5.3149557,5.3149557 0 0 1 -5.31445,5.31446 5.3149557,5.3149557 0 0 1 -5.31446,-5.31446 5.3149557,5.3149557 0 0 1 5.31446,-5.31445 z m 38.97656,0 a 5.3149557,5.3149557 0 0 1 5.31445,5.31445 5.3149557,5.3149557 0 0 1 -5.31445,5.31446 5.3149557,5.3149557 0 0 1 -5.31641,-5.31446 5.3149557,5.3149557 0 0 1 5.31641,-5.31445 z m 116.92773,0 a 5.3149557,5.3149557 0 0 1 5.31641,5.31445 5.3149557,5.3149557 0 0 1 -5.31641,5.31446 5.3149557,5.3149557 0 0 1 -5.31445,-5.31446 5.3149557,5.3149557 0 0 1 5.31445,-5.31445 z m 38.97657,0 a 5.3149557,5.3149557 0 0 1 5.3164,5.31445 5.3149557,5.3149557 0 0 1 -5.3164,5.31446 5.3149557,5.3149557 0 0 1 -5.31446,-5.31446 5.3149557,5.3149557 0 0 1 5.31446,-5.31445 z m 116.92968,0 a 5.3149557,5.3149557 0 0 1 5.31446,5.31445 5.3149557,5.3149557 0 0 1 -5.31446,5.31446 5.3149557,5.3149557 0 0 1 -5.31445,-5.31446 5.3149557,5.3149557 0 0 1 5.31445,-5.31445 z m 38.97657,0 a 5.3149557,5.3149557 0 0 1 5.31445,5.31445 5.3149557,5.3149557 0 0 1 -5.31445,5.31446 5.3149557,5.3149557 0 0 1 -5.31446,-5.31446 5.3149557,5.3149557 0 0 1 5.31446,-5.31445 z m 116.92968,0 a 5.3149557,5.3149557 0 0 1 5.31446,5.31445 5.3149557,5.3149557 0 0 1 -5.31446,5.31446 5.3149557,5.3149557 0 0 1 -5.3164,-5.31446 5.3149557,5.3149557 0 0 1 5.3164,-5.31445 z"
       transform="translate(0,-1.4388532e-6)"
       id="rect6423-8-9-6"
       inkscape:connector-curvature="0" />
  </g>
  <g
     inkscape:label="Cutout"
     inkscape:groupmode="layer"
     id="layer1"
     transform="translate(7.0866142,-584.64556)"
     style="display:inline"
     sodipodi:insensitive="true">
    <text
       xml:space="preserve"
       style="font-style:normal;font-weight:normal;font-size:40.00154495px;line-height:125%;font-family:sans-serif;letter-spacing:0px;word-spacing:0px;fill:#000000;fill-opacity:1;stroke:none;stroke-width:1px;stroke-linecap:butt;stroke-linejoin:miter;stroke-opacity:1"
       x="27.598246"
       y="924.62701"
       id="text6164-3-6-9-2-6-0"
       sodipodi:linespacing="125%"
       transform="scale(1.0000392,0.9999608)"
       inkscape:transform-center-x="-3.5"
       inkscape:transform-center-y="-161"><tspan
         sodipodi:role="line"
         x="27.598246"
         y="924.62701"
         id="tspan6168-5-2-1-7-1-23"
         style="font-style:normal;font-variant:normal;font-weight:normal;font-stretch:normal;font-size:15.00057983px;font-family:monospace;-inkscape-font-specification:monospace" /></text>
  </g>
  <g
     inkscape:groupmode="layer"
     id="layer4"
     inkscape:label="Holes"
     style="display:inline"
     transform="translate(-2.6771418e-8,155.90553)"
     sodipodi:insensitive="true" />
  <g
     inkscape:groupmode="layer"
     id="layer5"
     inkscape:label="Text"
     style="display:inline"
     transform="translate(0,1.4388532e-6)">
    <g
       transform="matrix(1.0000392,0,0,0.9999608,7.0866142,-584.64556)"
       style="font-style:normal;font-weight:normal;font-size:40.00154495px;line-height:125%;font-family:sans-serif;letter-spacing:0px;word-spacing:0px;fill:#000000;fill-opacity:1;stroke:none;stroke-width:1px;stroke-linecap:butt;stroke-linejoin:miter;stroke-opacity:1"
       id="text6164-3-6-9-2">
      <path
         d="m 31.897729,763.52232 q -0.988808,0 -1.530821,0.55666 -0.534689,0.54934 -0.534689,1.56012 0,1.01078 0.542013,1.57477 0.549338,0.55666 1.523497,0.55666 0.996132,0 1.530821,-0.54934 0.542013,-0.55666 0.542013,-1.58209 0,-1.00345 -0.549338,-1.56012 -0.542013,-0.55666 -1.523496,-0.55666 z m -1.289113,-0.61526 q -0.94486,-0.24171 -1.479549,-0.90091 -0.527364,-0.65921 -0.527364,-1.58942 0,-1.30376 0.886265,-2.06551 0.886264,-0.76907 2.409761,-0.76907 1.530821,0 2.417085,0.76907 0.886265,0.76175 0.886265,2.06551 0,0.93021 -0.534688,1.58942 -0.527365,0.6592 -1.472225,0.90091 1.098675,0.24171 1.677311,0.97416 0.58596,0.73245 0.58596,1.89705 0,1.47955 -0.944861,2.31454 -0.944861,0.83499 -2.614847,0.83499 -1.669987,0 -2.614847,-0.82767 -0.937537,-0.83499 -0.937537,-2.30721 0,-1.17192 0.578636,-1.90437 0.58596,-0.73978 1.684635,-0.98149 z m -0.534688,-2.35116 q 0,0.87894 0.468768,1.34038 0.468768,0.46145 1.355033,0.46145 0.893589,0 1.362357,-0.46145 0.468768,-0.46144 0.468768,-1.34038 0,-0.89359 -0.468768,-1.36236 -0.461443,-0.46877 -1.362357,-0.46877 -0.886265,0 -1.355033,0.4761 -0.468768,0.46876 -0.468768,1.35503 z"
         style="font-style:normal;font-variant:normal;font-weight:normal;font-stretch:normal;font-size:15.00057983px;font-family:monospace;-inkscape-font-specification:monospace"
         id="path8699" />
    </g>
    <g
       transform="matrix(1.0000392,0,0,0.9999608,7.0866142,-584.64556)"
       inkscape:transform-center-x="0.5"
       inkscape:transform-center-y="-10.5"
       style="font-style:normal;font-weight:normal;font-size:40.00154495px;line-height:125%;font-family:sans-serif;letter-spacing:0px;word-spacing:0px;fill:#000000;fill-opacity:1;stroke:none;stroke-width:1px;stroke-linecap:butt;stroke-linejoin:miter;stroke-opacity:1"
       id="text6164-3-6-9-2-0">
      <path
         d="m 184.24474,757.99231 6.88504,0 0,0.62991 -3.91129,10.30558 -1.54547,0 3.80874,-9.69032 -5.23702,0 0,-1.24517 z"
         style="font-style:normal;font-variant:normal;font-weight:normal;font-stretch:normal;font-size:15.00057983px;font-family:monospace;-inkscape-font-specification:monospace"
         id="path8696" />
    </g>
    <g
       transform="matrix(1.0000392,0,0,0.9999608,7.0866142,-584.64556)"
       inkscape:transform-center-x="116.5"
       inkscape:transform-center-y="4"
       style="font-style:normal;font-weight:normal;font-size:40.00154495px;line-height:125%;font-family:sans-serif;letter-spacing:0px;word-spacing:0px;fill:#000000;fill-opacity:1;stroke:none;stroke-width:1px;stroke-linecap:butt;stroke-linejoin:miter;stroke-opacity:1"
       id="text6164-3-6-9-2-3">
      <path
         d="m 346.42856,758.02162 0,1.36236 q -0.46144,-0.27101 -0.98148,-0.41017 -0.52004,-0.14649 -1.08403,-0.14649 -1.4063,0 -2.13143,1.06205 -0.72512,1.05473 -0.72512,3.11291 0.35158,-0.73245 0.97416,-1.12065 0.62258,-0.39552 1.42828,-0.39552 1.58209,0 2.44638,0.97416 0.87161,0.96683 0.87161,2.74669 0,1.77253 -0.89358,2.74668 -0.89359,0.97416 -2.51231,0.97416 -1.90437,0 -2.79063,-1.36235 -0.88627,-1.36969 -0.88627,-4.30681 0,-2.76866 1.06205,-4.21891 1.06938,-1.45758 3.09094,-1.45758 0.54202,0 1.08403,0.11719 0.54201,0.10987 1.0474,0.32228 z m -2.63682,4.62176 q -0.94486,0 -1.48687,0.68118 -0.54201,0.68118 -0.54201,1.8824 0,1.20121 0.54201,1.88239 0.54201,0.68118 1.48687,0.68118 0.98149,0 1.47955,-0.64455 0.49807,-0.65188 0.49807,-1.91902 0,-1.27447 -0.49807,-1.91902 -0.49806,-0.64456 -1.47955,-0.64456 z"
         style="font-style:normal;font-variant:normal;font-weight:normal;font-stretch:normal;font-size:15.00057983px;font-family:monospace;-inkscape-font-specification:monospace"
         id="path8693" />
    </g>
    <g
       transform="matrix(1.0000392,0,0,0.9999608,7.0866142,-584.64556)"
       inkscape:transform-center-x="136.5"
       inkscape:transform-center-y="3.5"
       style="font-style:normal;font-weight:normal;font-size:40.00154495px;line-height:125%;font-family:sans-serif;letter-spacing:0px;word-spacing:0px;fill:#000000;fill-opacity:1;stroke:none;stroke-width:1px;stroke-linecap:butt;stroke-linejoin:miter;stroke-opacity:1"
       id="text6164-3-6-9-2-06">
      <path
         d="m 496.51233,757.77991 5.53732,0 0,1.24517 -4.18961,0 0,2.68809 q 0.31495,-0.11719 0.6299,-0.16846 0.32228,-0.0586 0.64456,-0.0586 1.69928,0 2.69542,1.00346 0.99613,1.00345 0.99613,2.71739 0,1.72858 -1.04741,2.72471 -1.04008,0.99613 -2.84923,0.99613 -0.87161,0 -1.59674,-0.11719 -0.7178,-0.11719 -1.28911,-0.35157 l 0,-1.50153 q 0.67385,0.36623 1.35503,0.54934 0.68118,0.17579 1.39166,0.17579 1.22319,0 1.88239,-0.64456 0.66653,-0.64455 0.66653,-1.83112 0,-1.17192 -0.6885,-1.8238 -0.68118,-0.65188 -1.90437,-0.65188 -0.59328,0 -1.15727,0.13916 -0.56399,0.13184 -1.0767,0.40285 l 0,-5.49338 z"
         style="font-style:normal;font-variant:normal;font-weight:normal;font-stretch:normal;font-size:15.00057983px;font-family:monospace;-inkscape-font-specification:monospace"
         id="path8690" />
    </g>
    <g
       transform="matrix(1.0000392,0,0,0.9999608,7.0866142,-584.64556)"
       inkscape:transform-center-x="-3.5"
       inkscape:transform-center-y="-161"
       style="font-style:normal;font-weight:normal;font-size:40.00154495px;line-height:125%;font-family:sans-serif;letter-spacing:0px;word-spacing:0px;fill:#000000;fill-opacity:1;stroke:none;stroke-width:1px;stroke-linecap:butt;stroke-linejoin:miter;stroke-opacity:1"
       id="text6164-3-6-9-2-6-9">
      <path
         d="m 184.42053,923.59425 2.2999,0 0,-8.35726 -2.47569,0.55667 0,-1.34771 2.46104,-0.54201 1.47955,0 0,9.69031 2.27059,0 0,1.24517 -6.03539,0 0,-1.24517 z"
         style="font-style:normal;font-variant:normal;font-weight:normal;font-stretch:normal;font-size:15.00057983px;font-family:monospace;-inkscape-font-specification:monospace"
         id="path8685" />
      <path
         d="m 193.44432,923.59425 2.29989,0 0,-8.35726 -2.47568,0.55667 0,-1.34771 2.46103,-0.54201 1.47955,0 0,9.69031 2.2706,0 0,1.24517 -6.03539,0 0,-1.24517 z"
         style="font-style:normal;font-variant:normal;font-weight:normal;font-stretch:normal;font-size:15.00057983px;font-family:monospace;-inkscape-font-specification:monospace"
         id="path8687" />
    </g>
    <g
       transform="matrix(1.0000392,0,0,0.9999608,7.0866142,-584.64556)"
       style="font-style:normal;font-weight:normal;font-size:40.00154495px;line-height:125%;font-family:sans-serif;letter-spacing:0px;word-spacing:0px;fill:#000000;fill-opacity:1;stroke:none;stroke-width:1px;stroke-linecap:butt;stroke-linejoin:miter;stroke-opacity:1"
       id="text6164-3-6-9-2-8">
      <path
         d="m 499.66234,919.77819 q 0.94486,0 1.47955,-0.68117 0.54201,-0.68118 0.54201,-1.8824 0,-1.20122 -0.54201,-1.8824 -0.53469,-0.68118 -1.47955,-0.68118 -0.98148,0 -1.47955,0.65188 -0.49807,0.64456 -0.49807,1.9117 0,1.27446 0.49075,1.91902 0.49806,0.64455 1.48687,0.64455 z m -2.63682,4.62176 0,-1.36235 q 0.46144,0.271 0.98148,0.41749 0.52004,0.13917 1.08403,0.13917 1.4063,0 2.1241,-1.05473 0.72513,-1.06205 0.72513,-3.12024 -0.34425,0.73245 -0.96684,1.12798 -0.62258,0.3882 -1.42827,0.3882 -1.5821,0 -2.45371,-0.97416 -0.86429,-0.97416 -0.86429,-2.76134 0,-1.76521 0.88626,-2.73204 0.89359,-0.97416 2.51963,-0.97416 1.90437,0 2.79064,1.36968 0.88626,1.36969 0.88626,4.30681 0,2.76134 -1.06938,4.21891 -1.06205,1.45025 -3.09094,1.45025 -0.53468,0 -1.0767,-0.11719 -0.54201,-0.10986 -1.0474,-0.32228 z"
         style="font-style:normal;font-variant:normal;font-weight:normal;font-stretch:normal;font-size:15.00057983px;font-family:monospace;-inkscape-font-specification:monospace"
         id="path8682" />
    </g>
    <g
       transform="matrix(1.0000392,0,0,0.9999608,7.0866142,-584.64556)"
       inkscape:transform-center-x="-3.5"
       inkscape:transform-center-y="-161"
       style="font-style:normal;font-weight:normal;font-size:40.00154495px;line-height:125%;font-family:sans-serif;letter-spacing:0px;word-spacing:0px;fill:#000000;fill-opacity:1;stroke:none;stroke-width:1px;stroke-linecap:butt;stroke-linejoin:miter;stroke-opacity:1"
       id="text6164-3-6-9-2-6">
      <path
         d="m 341.37498,923.38185 2.2999,0 0,-8.35726 -2.47568,0.55666 0,-1.3477 2.46103,-0.54202 1.47955,0 0,9.69032 2.27059,0 0,1.24516 -6.03539,0 0,-1.24516 z"
         style="font-style:normal;font-variant:normal;font-weight:normal;font-stretch:normal;font-size:15.00057983px;font-family:monospace;-inkscape-font-specification:monospace"
         id="path8677" />
      <path
         d="m 351.95889,919.13364 q 0,-0.40285 0.27833,-0.69583 0.28566,-0.29298 0.68118,-0.29298 0.41017,0 0.70315,0.29298 0.29298,0.29298 0.29298,0.69583 0,0.41017 -0.29298,0.69583 -0.28565,0.28565 -0.70315,0.28565 -0.41017,0 -0.6885,-0.27833 -0.27101,-0.27833 -0.27101,-0.70315 z m 0.97416,-4.46795 q -1.03276,0 -1.54547,1.11333 -0.50539,1.11332 -0.50539,3.39124 0,2.2706 0.50539,3.38392 0.51271,1.11332 1.54547,1.11332 1.04008,0 1.54547,-1.11332 0.51271,-1.11332 0.51271,-3.38392 0,-2.27792 -0.51271,-3.39124 -0.50539,-1.11333 -1.54547,-1.11333 z m 0,-1.17192 q 1.75056,0 2.64414,1.4356 0.90092,1.43561 0.90092,4.24089 0,2.79796 -0.90092,4.23356 -0.89358,1.4356 -2.64414,1.4356 -1.75056,0 -2.64415,-1.4356 -0.89359,-1.4356 -0.89359,-4.23356 0,-2.80528 0.89359,-4.24089 0.89359,-1.4356 2.64415,-1.4356 z"
         style="font-style:normal;font-variant:normal;font-weight:normal;font-stretch:normal;font-size:15.00057983px;font-family:monospace;-inkscape-font-specification:monospace"
         id="path8679" />
    </g>
    <g
       transform="scale(1.0000392,0.99996081)"
       style="font-style:normal;font-weight:normal;font-size:40.00154495px;line-height:125%;font-family:sans-serif;letter-spacing:0px;word-spacing:0px;display:inline;fill:#000000;fill-opacity:1;stroke:none;stroke-width:1px;stroke-linecap:butt;stroke-linejoin:miter;stroke-opacity:1"
       id="text6164-3">
      <path
         d="m 348.8492,27.102558 5.0246,0 0,1.245165 -6.64332,0 0,-1.245165 q 1.36968,-1.442927 2.39511,-2.548927 1.02543,-1.106 1.41363,-1.560119 0.73245,-0.893589 0.98881,-1.442927 0.25636,-0.556662 0.25636,-1.135298 0,-0.915562 -0.54202,-1.435602 -0.53468,-0.52004 -1.47222,-0.52004 -0.66653,0 -1.39898,0.241709 -0.73245,0.241709 -1.55279,0.73245 l 0,-1.494198 q 0.75442,-0.358901 1.47954,-0.542013 0.73245,-0.183113 1.44293,-0.183113 1.60407,0 2.57823,0.856967 0.98148,0.849642 0.98148,2.233973 0,0.703152 -0.3296,1.406304 -0.32228,0.703152 -1.05473,1.552795 -0.41017,0.476092 -1.1939,1.31841 -0.77639,0.842318 -2.37313,2.519629 z"
         style="font-style:normal;font-variant:normal;font-weight:normal;font-stretch:normal;font-size:15.00057983px;font-family:monospace;-inkscape-font-specification:monospace;fill:#000000"
         id="path8674" />
    </g>
    <g
       transform="scale(1.0000392,0.99996081)"
       style="font-style:normal;font-weight:normal;font-size:40.00154495px;line-height:125%;font-family:sans-serif;letter-spacing:0px;word-spacing:0px;display:inline;fill:#000000;fill-opacity:1;stroke:none;stroke-width:1px;stroke-linecap:butt;stroke-linejoin:miter;stroke-opacity:1"
       id="text6164-3-6">
      <path
         d="m 196.01143,22.283044 q 1.07671,0.285655 1.64802,1.018105 0.57131,0.725126 0.57131,1.816477 0,1.508847 -1.01811,2.373138 -1.01078,0.856967 -2.80528,0.856967 -0.75442,0 -1.53815,-0.139165 -0.78372,-0.139166 -1.53814,-0.402848 l 0,-1.472225 q 0.7471,0.388199 1.47222,0.578636 0.72513,0.190437 1.44293,0.190437 1.21587,0 1.86775,-0.549338 0.65188,-0.549337 0.65188,-1.582092 0,-0.952185 -0.65188,-1.508848 -0.65188,-0.563986 -1.76521,-0.563986 l -1.12797,0 0,-1.215867 1.12797,0 q 1.01811,0 1.58942,-0.446795 0.57131,-0.446795 0.57131,-1.245165 0,-0.842318 -0.53469,-1.289113 -0.52736,-0.454119 -1.50884,-0.454119 -0.65189,0 -1.34771,0.14649 -0.69583,0.14649 -1.45758,0.43947 l 0,-1.362357 q 0.88627,-0.234384 1.57477,-0.351576 0.69583,-0.117192 1.23052,-0.117192 1.59674,0 2.54892,0.805695 0.95951,0.798371 0.95951,2.124106 0,0.900913 -0.50539,1.501522 -0.49807,0.60061 -1.45758,0.849643 z"
         style="font-style:normal;font-variant:normal;font-weight:normal;font-stretch:normal;font-size:15.00057983px;font-family:monospace;-inkscape-font-specification:monospace;fill:#000000"
         id="path8671" />
    </g>
    <g
       transform="scale(1.0000392,0.99996081)"
       style="font-style:normal;font-weight:normal;font-size:40.00154495px;line-height:125%;font-family:sans-serif;letter-spacing:0px;word-spacing:0px;display:inline;fill:#000000;fill-opacity:1;stroke:none;stroke-width:1px;stroke-linecap:butt;stroke-linejoin:miter;stroke-opacity:1"
       id="text6164-3-6-9">
      <path
         d="m 40.068094,18.75995 -3.44984,5.779032 3.44984,0 0,-5.779032 z m -0.241708,-1.347708 1.713933,0 0,7.12674 1.457576,0 0,1.201218 -1.457576,0 0,2.607523 -1.472225,0 0,-2.607523 -4.636409,0 0,-1.39898 4.394701,-6.928978 z"
         style="font-style:normal;font-variant:normal;font-weight:normal;font-stretch:normal;font-size:15.00057983px;font-family:monospace;-inkscape-font-specification:monospace;fill:#000000"
         id="path8668" />
    </g>
    <g
       transform="matrix(0,-1,0.99999999,0,0,0)"
       style="font-style:normal;font-weight:normal;font-size:40px;line-height:125%;font-family:sans-serif;letter-spacing:0px;word-spacing:0px;display:inline;fill:#000000;fill-opacity:1;stroke:none;stroke-width:1px;stroke-linecap:butt;stroke-linejoin:miter;stroke-opacity:1"
       id="text6164-7">
      <path
         d="m -119.11151,528.49426 0,3.20801 0.88623,0 q 1.06201,0 1.48682,-0.35889 0.43213,-0.35888 0.43213,-1.24511 0,-0.88623 -0.43213,-1.24512 -0.42481,-0.35889 -1.48682,-0.35889 l -0.88623,0 z m -2.16064,-1.8164 2.96631,0 q 2.26318,0 3.25195,0.80566 0.99609,0.80566 0.99609,2.61475 0,1.80908 -0.99609,2.61474 -0.98877,0.80567 -3.25195,0.80567 l -0.80567,0 0,4.09424 -2.16064,0 0,-10.93506 z"
         style="font-style:normal;font-variant:normal;font-weight:bold;font-stretch:normal;font-size:15px;font-family:monospace;-inkscape-font-specification:'monospace Bold';text-align:end;text-anchor:end;fill:#000000"
         id="path8623" />
      <path
         d="m -112.17547,528.58215 0,-1.90429 6.51123,0 0,1.90429 -2.17529,0 0,7.12647 2.17529,0 0,1.9043 -6.51123,0 0,-1.9043 2.17529,0 0,-7.12647 -2.17529,0 z"
         style="font-style:normal;font-variant:normal;font-weight:bold;font-stretch:normal;font-size:15px;font-family:monospace;-inkscape-font-specification:'monospace Bold';text-align:end;text-anchor:end;fill:#000000"
         id="path8625" />
      <path
         d="m -98.501156,532.44934 q 0.322266,0.0659 0.556641,0.30762 0.241699,0.23437 0.585937,0.92285 l 1.977539,3.93311 -2.373047,0 -1.318359,-2.76124 q -0.05859,-0.11718 -0.153809,-0.32226 -0.578613,-1.23779 -1.362306,-1.23779 l -0.68847,0 0,4.32129 -2.16065,0 0,-10.93506 3.12012,0 q 2.109373,0 3.0249,0.74707 0.922852,0.74707 0.922852,2.43164 0,1.12793 -0.549317,1.79443 -0.549316,0.6665 -1.582031,0.79834 z m -2.775874,-3.95508 0,2.98096 1.01806,0 q 0.886232,0 1.267091,-0.34424 0.388184,-0.35156 0.388184,-1.1499 0,-0.79834 -0.380859,-1.14258 -0.38086,-0.34424 -1.274416,-0.34424 l -1.01806,0 z"
         style="font-style:normal;font-variant:normal;font-weight:bold;font-stretch:normal;font-size:15px;font-family:monospace;-inkscape-font-specification:'monospace Bold';text-align:end;text-anchor:end;fill:#000000"
         id="path8627" />
      <path
         d="m -80.769222,537.61292 -2.160645,0 0,-9.04542 -2.775879,0 0,-1.88964 7.712403,0 0,1.88964 -2.775879,0 0,9.04542 z"
         style="font-style:normal;font-variant:normal;font-weight:bold;font-stretch:normal;font-size:15px;font-family:monospace;-inkscape-font-specification:'monospace Bold';text-align:end;text-anchor:end;fill:#000000"
         id="path8629" />
      <path
         d="m -69.49725,532.28821 0,5.32471 -2.131347,0 0,-4.99512 q 0,-0.88623 -0.256348,-1.26709 -0.249023,-0.38086 -0.820312,-0.38086 -0.585938,0 -0.915528,0.52002 -0.32959,0.51269 -0.32959,1.42822 l 0,4.69483 -2.131347,0 0,-11.39649 2.131347,0 0,4.42383 q 0.227051,-0.68115 0.776368,-1.05469 0.549316,-0.37353 1.325683,-0.37353 1.164551,0 1.757813,0.77636 0.593261,0.76905 0.593261,2.29981 z"
         style="font-style:normal;font-variant:normal;font-weight:bold;font-stretch:normal;font-size:15px;font-family:monospace;-inkscape-font-specification:'monospace Bold';text-align:end;text-anchor:end;fill:#000000"
         id="path8631" />
      <path
         d="m -66.699398,529.40979 4.248047,0 0,6.55518 2.666015,0 0,1.64795 -7.485351,0 0,-1.64795 2.67334,0 0,-4.90723 -2.102051,0 0,-1.64795 z m 2.102051,-3.9917 2.145996,0 0,2.50488 -2.145996,0 0,-2.50488 z"
         style="font-style:normal;font-variant:normal;font-weight:bold;font-stretch:normal;font-size:15px;font-family:monospace;-inkscape-font-specification:'monospace Bold';text-align:end;text-anchor:end;fill:#000000"
         id="path8633" />
      <path
         d="m -51.450375,532.28821 0,5.32471 -2.131347,0 0,-4.99512 q 0,-0.89356 -0.256348,-1.27442 -0.249023,-0.38818 -0.820312,-0.38818 -0.578614,0 -0.915528,0.52002 -0.32959,0.52002 -0.32959,1.44287 l 0,4.69483 -2.131347,0 0,-8.20313 2.131347,0 0,1.23047 q 0.227051,-0.68115 0.776368,-1.05469 0.549316,-0.37353 1.325683,-0.37353 1.164551,0 1.757813,0.77636 0.593261,0.76905 0.593261,2.29981 z"
         style="font-style:normal;font-variant:normal;font-weight:bold;font-stretch:normal;font-size:15px;font-family:monospace;-inkscape-font-specification:'monospace Bold';text-align:end;text-anchor:end;fill:#000000"
         id="path8635" />
      <path
         d="m -44.389828,533.37952 q 0,-1.09864 -0.41748,-1.75782 -0.417481,-0.6665 -1.098633,-0.6665 -0.673828,0 -1.091309,0.65918 -0.410156,0.65918 -0.410156,1.76514 0,1.11328 0.410156,1.77246 0.417481,0.65918 1.091309,0.65918 0.681152,0 1.098633,-0.65918 0.41748,-0.66651 0.41748,-1.77246 z m 2.145996,3.61816 q 0,1.97022 -0.893554,2.8418 -0.886231,0.8789 -2.885743,0.8789 -0.673828,0 -1.333007,-0.10254 -0.65918,-0.0952 -1.340332,-0.30029 l 0,-1.97021 q 0.60791,0.33691 1.237793,0.49804 0.629882,0.16114 1.296386,0.16114 0.908203,0 1.340332,-0.43213 0.432129,-0.42481 0.432129,-1.33301 l 0,-0.88623 q -0.314941,0.58594 -0.834961,0.87158 -0.520019,0.28565 -1.26709,0.28565 -1.40625,0 -2.233886,-1.09864 -0.827637,-1.09863 -0.827637,-2.98095 0,-1.94825 0.827637,-3.09082 0.827636,-1.14258 2.219238,-1.14258 0.703125,0 1.252441,0.32959 0.549317,0.32959 0.864258,0.93017 l 0,-1.04736 2.145996,0 0,7.58789 z"
         style="font-style:normal;font-variant:normal;font-weight:bold;font-stretch:normal;font-size:15px;font-family:monospace;-inkscape-font-specification:'monospace Bold';text-align:end;text-anchor:end;fill:#000000"
         id="path8637" />
      <path
         d="m -50.849789,548.15979 -2.607422,8.20313 -2.644043,0 -2.607421,-8.20313 2.175293,0 1.750488,6.40137 1.757812,-6.40137 2.175293,0 z"
         style="font-style:normal;font-variant:normal;font-weight:bold;font-stretch:normal;font-size:15px;font-family:monospace;-inkscape-font-specification:'monospace Bold';text-align:end;text-anchor:end;fill:#000000"
         id="path8639" />
      <path
         d="m -48.894222,554.45862 2.416992,0 0,-7.09717 -2.248535,0.55664 0,-1.94824 2.263183,-0.54199 2.087403,0 0,9.03076 2.416992,0 0,1.9043 -6.936035,0 0,-1.9043 z"
         style="font-style:normal;font-variant:normal;font-weight:bold;font-stretch:normal;font-size:15px;font-family:monospace;-inkscape-font-specification:'monospace Bold';text-align:end;text-anchor:end;fill:#000000"
         id="path8641" />
      <path
         d="m -101.77996,564.99957 q -0.44861,0 -0.70496,0.39733 -0.25635,0.39307 -0.25635,1.09803 0,0.70495 0.25635,1.10229 0.25635,0.39307 0.70496,0.39307 0.45288,0 0.70922,-0.39307 0.25635,-0.39734 0.25635,-1.10229 0,-0.70496 -0.25635,-1.09803 -0.25634,-0.39733 -0.70922,-0.39733 z m -2.21314,1.49536 q 0,-1.15784 0.59815,-1.83289 0.60241,-0.67932 1.61499,-0.67932 1.01684,0 1.61499,0.67932 0.602413,0.67505 0.602413,1.83289 0,1.15783 -0.602413,1.83716 -0.59815,0.67504 -1.61499,0.67504 -1.01258,0 -1.61499,-0.67504 -0.59815,-0.67933 -0.59815,-1.83716 z"
         style="font-style:normal;font-variant:normal;font-weight:bold;font-stretch:normal;font-size:8.75px;font-family:monospace;-inkscape-font-specification:'monospace Bold';text-align:end;text-anchor:end;fill:#000000"
         id="path8643" />
      <path
         d="m -98.464535,567.2127 0,-3.11462 1.251831,0 0,2.92236 q 0,0.51697 0.145264,0.73914 0.145264,0.22216 0.482788,0.22216 0.337524,0 0.525513,-0.29907 0.19226,-0.29907 0.19226,-0.8374 l 0,-2.74719 1.251832,0 0,4.78515 -1.251832,0 0,-0.70923 q -0.132446,0.39734 -0.45288,0.61524 -0.316162,0.21789 -0.764771,0.21789 -0.683594,0 -1.033935,-0.45288 -0.34607,-0.45288 -0.34607,-1.34155 z"
         style="font-style:normal;font-variant:normal;font-weight:bold;font-stretch:normal;font-size:8.75px;font-family:monospace;-inkscape-font-specification:'monospace Bold';text-align:end;text-anchor:end;fill:#000000"
         id="path8645" />
      <path
         d="m -90.936459,562.73943 0,1.35865 1.636353,0 0,0.9613 -1.636353,0 0,2.2644 q 0,0.32044 0.153809,0.46143 0.158081,0.13672 0.52124,0.13672 l 0.961304,0 0,0.9613 -1.051025,0 q -1.076661,0 -1.45691,-0.34179 -0.380249,-0.34607 -0.380249,-1.27747 l 0,-2.20459 -1.221923,0 0,-0.9613 1.221923,0 0,-1.35865 1.251831,0 z"
         style="font-style:normal;font-variant:normal;font-weight:bold;font-stretch:normal;font-size:8.75px;font-family:monospace;-inkscape-font-specification:'monospace Bold';text-align:end;text-anchor:end;fill:#000000"
         id="path8647" />
      <path
         d="m -85.988949,564.99957 q -0.448608,0 -0.704956,0.39733 -0.256348,0.39307 -0.256348,1.09803 0,0.70495 0.256348,1.10229 0.256348,0.39307 0.704956,0.39307 0.452881,0 0.709229,-0.39307 0.256347,-0.39734 0.256347,-1.10229 0,-0.70496 -0.256347,-1.09803 -0.256348,-0.39733 -0.709229,-0.39733 z m -2.213135,1.49536 q 0,-1.15784 0.598145,-1.83289 0.602417,-0.67932 1.61499,-0.67932 1.016846,0 1.61499,0.67932 0.602417,0.67505 0.602417,1.83289 0,1.15783 -0.602417,1.83716 -0.598144,0.67504 -1.61499,0.67504 -1.012573,0 -1.61499,-0.67504 -0.598145,-0.67933 -0.598145,-1.83716 z"
         style="font-style:normal;font-variant:normal;font-weight:bold;font-stretch:normal;font-size:8.75px;font-family:monospace;-inkscape-font-specification:'monospace Bold';text-align:end;text-anchor:end;fill:#000000"
         id="path8649" />
      <path
         d="m -80.199764,563.67938 0,0.4187 1.469726,0 0,0.9613 -1.469726,0 0,3.82385 -1.251831,0 0,-3.82385 -1.16211,0 0,-0.9613 1.16211,0 0,-0.33326 q 0,-0.86303 0.358886,-1.19628 0.358887,-0.33326 1.333008,-0.33326 l 1.029663,0 0,0.96131 -0.978393,0 q -0.281983,0 -0.384522,0.10254 -0.09827,0.10254 -0.106811,0.38025 z"
         style="font-style:normal;font-variant:normal;font-weight:bold;font-stretch:normal;font-size:8.75px;font-family:monospace;-inkscape-font-specification:'monospace Bold';text-align:end;text-anchor:end;fill:#000000"
         id="path8651" />
      <path
         d="m -75.145443,562.73943 0,1.35865 1.636353,0 0,0.9613 -1.636353,0 0,2.2644 q 0,0.32044 0.153809,0.46143 0.158081,0.13672 0.52124,0.13672 l 0.961304,0 0,0.9613 -1.051026,0 q -1.07666,0 -1.456909,-0.34179 -0.380249,-0.34607 -0.380249,-1.27747 l 0,-2.20459 -1.221924,0 0,-0.9613 1.221924,0 0,-1.35865 1.251831,0 z"
         style="font-style:normal;font-variant:normal;font-weight:bold;font-stretch:normal;font-size:8.75px;font-family:monospace;-inkscape-font-specification:'monospace Bold';text-align:end;text-anchor:end;fill:#000000"
         id="path8653" />
      <path
         d="m -68.253963,565.77715 0,3.10608 -1.243287,0 0,-2.91382 q 0,-0.51696 -0.149536,-0.73913 -0.145263,-0.22217 -0.478515,-0.22217 -0.341797,0 -0.534058,0.30335 -0.192261,0.29907 -0.192261,0.83313 l 0,2.73864 -1.243286,0 0,-6.64795 1.243286,0 0,2.58057 q 0.132447,-0.39734 0.452881,-0.61523 0.320435,-0.2179 0.773316,-0.2179 0.679321,0 1.02539,0.45288 0.34607,0.44861 0.34607,1.34155 z"
         style="font-style:normal;font-variant:normal;font-weight:bold;font-stretch:normal;font-size:8.75px;font-family:monospace;-inkscape-font-specification:'monospace Bold';text-align:end;text-anchor:end;fill:#000000"
         id="path8655" />
      <path
         d="m -62.857845,568.64825 q -0.435791,0.17944 -0.888672,0.26916 -0.452881,0.0897 -0.957031,0.0897 -1.200562,0 -1.837159,-0.64086 -0.632324,-0.64515 -0.632324,-1.85425 0,-1.17066 0.610962,-1.84998 0.610962,-0.67932 1.66626,-0.67932 1.063843,0 1.64917,0.63232 0.589599,0.62806 0.589599,1.77308 l 0,0.50842 -3.242797,0 q 0.0043,0.56396 0.333251,0.84167 0.32898,0.27771 0.982666,0.27771 0.431519,0 0.85022,-0.1239 0.418701,-0.1239 0.875855,-0.39306 l 0,1.14929 z m -1.059571,-2.69165 q -0.0085,-0.49561 -0.256347,-0.74768 -0.243531,-0.25635 -0.722046,-0.25635 -0.431519,0 -0.687866,0.26489 -0.256348,0.26062 -0.303345,0.74341 l 1.969604,-0.004 z"
         style="font-style:normal;font-variant:normal;font-weight:bold;font-stretch:normal;font-size:8.75px;font-family:monospace;-inkscape-font-specification:'monospace Bold';text-align:end;text-anchor:end;fill:#000000"
         id="path8657" />
      <path
         d="m -58.670834,566.50347 q 0,-0.69214 -0.230712,-1.0852 -0.230713,-0.39307 -0.636597,-0.39307 -0.405884,0 -0.640869,0.39307 -0.234986,0.39306 -0.234986,1.0852 0,0.69214 0.234986,1.08521 0.234985,0.39306 0.640869,0.39306 0.405884,0 0.636597,-0.39306 0.230712,-0.39307 0.230712,-1.08521 z m -1.743164,-1.72607 q 0.230713,-0.39734 0.534058,-0.59387 0.307617,-0.20081 0.692139,-0.20081 0.850219,0 1.307373,0.64941 0.461425,0.64942 0.461425,1.8628 0,1.19629 -0.45288,1.85425 -0.452881,0.65795 -1.273194,0.65795 -0.431518,0 -0.751953,-0.20935 -0.320434,-0.20935 -0.516968,-0.62378 l 0,0.70923 -1.247558,0 0,-6.64795 1.247558,0 0,2.54212 z"
         style="font-style:normal;font-variant:normal;font-weight:bold;font-stretch:normal;font-size:8.75px;font-family:monospace;-inkscape-font-specification:'monospace Bold';text-align:end;text-anchor:end;fill:#000000"
         id="path8659" />
      <path
         d="m -55.385311,566.88799 0,-3.6914 -1.268921,0 0,-0.96131 2.520752,0 0,4.65271 q 0,0.56397 0.175171,0.79895 0.175171,0.23499 0.593872,0.23499 l 0.999756,0 0,0.9613 -1.350098,0 q -0.892944,0 -1.281738,-0.46142 -0.388794,-0.46143 -0.388794,-1.53382 z"
         style="font-style:normal;font-variant:normal;font-weight:bold;font-stretch:normal;font-size:8.75px;font-family:monospace;-inkscape-font-specification:'monospace Bold';text-align:end;text-anchor:end;fill:#000000"
         id="path8661" />
      <path
         d="m -49.143246,564.99957 q -0.448608,0 -0.704956,0.39733 -0.256347,0.39307 -0.256347,1.09803 0,0.70495 0.256347,1.10229 0.256348,0.39307 0.704956,0.39307 0.452881,0 0.709229,-0.39307 0.256347,-0.39734 0.256347,-1.10229 0,-0.70496 -0.256347,-1.09803 -0.256348,-0.39733 -0.709229,-0.39733 z m -2.213134,1.49536 q 0,-1.15784 0.598144,-1.83289 0.602417,-0.67932 1.61499,-0.67932 1.016846,0 1.614991,0.67932 0.602417,0.67505 0.602417,1.83289 0,1.15783 -0.602417,1.83716 -0.598145,0.67504 -1.614991,0.67504 -1.012573,0 -1.61499,-0.67504 -0.598144,-0.67933 -0.598144,-1.83716 z"
         style="font-style:normal;font-variant:normal;font-weight:bold;font-stretch:normal;font-size:8.75px;font-family:monospace;-inkscape-font-specification:'monospace Bold';text-align:end;text-anchor:end;fill:#000000"
         id="path8663" />
      <path
         d="m -41.619442,564.09808 -1.610718,2.29004 1.751709,2.49511 -1.461181,0 -0.939942,-1.61071 -0.935669,1.61071 -1.461181,0 1.768798,-2.49511 -1.627807,-2.29004 1.461181,0 0.794678,1.427 0.79895,-1.427 1.461182,0 z"
         style="font-style:normal;font-variant:normal;font-weight:bold;font-stretch:normal;font-size:8.75px;font-family:monospace;-inkscape-font-specification:'monospace Bold';text-align:end;text-anchor:end;fill:#000000"
         id="path8665" />
    </g>
    <g
       style="display:inline;fill:#000000"
       id="g5904"
       transform="matrix(0,-1,0.99999996,0,441.92055,661.45702)">
      <path
         id="path5303"
         d="m 544.99996,115.37003 c -2.43024,0 -4.56881,0.89814 -6.22144,2.57255 -1.70134,1.72304 -2.62479,3.95595 -2.62479,6.28558 0,2.35423 0.89909,4.5385 2.60043,6.23723 1.70134,1.699 3.91269,2.62118 6.2458,2.62118 2.33283,0 4.59317,-0.92218 6.34293,-2.64522 1.65263,-1.62605 2.52738,-3.786 2.52738,-6.21319 0,-2.40259 -0.87475,-4.58658 -2.55173,-6.26126 -1.70106,-1.699 -3.88834,-2.59687 -6.31858,-2.59687 z m 0.0241,1.60173 c 1.99302,0 3.76713,0.75222 5.15216,2.13591 1.36096,1.35881 2.08987,3.15481 2.08987,5.12049 0,1.99 -0.70483,3.73764 -2.06551,5.07241 -1.43402,1.40745 -3.28091,2.15996 -5.17652,2.15996 -1.91967,0 -3.71814,-0.75223 -5.10345,-2.13592 -1.38531,-1.38341 -2.16292,-3.20345 -2.16292,-5.09645 0,-1.91704 0.77761,-3.73708 2.16292,-5.14509 1.36096,-1.38313 3.11072,-2.11131 5.10345,-2.11131 z"
         inkscape:connector-curvature="0"
         style="fill:#000000" />
      <path
         d="m 544.90983,122.75614 c -0.50105,-0.9124 -1.35592,-1.27551 -2.34823,-1.27551 -1.44437,0 -2.59399,1.0203 -2.59399,2.74725 0,1.75631 1.08076,2.74753 2.64298,2.74753 1.00238,0 1.85725,-0.54956 2.32863,-1.3834 l -1.10036,-0.55935 c -0.24576,0.58842 -0.61917,0.76536 -1.09055,0.76536 -0.81568,0 -1.18909,-0.67703 -1.18909,-1.57014 0,-0.89255 0.31462,-1.56986 1.18909,-1.56986 0.23569,0 0.70735,0.12747 0.98251,0.71645 l 1.17901,-0.61833 z"
         id="c"
         inkscape:connector-curvature="0"
         style="fill:#000000" />
      <use
         id="use5306"
         transform="translate(5.1171703,-6e-7)"
         xlink:href="#c"
         x="0"
         y="0"
         width="100%"
         height="100%"
         style="fill:#000000" />
    </g>
    <g
       transform="scale(1.0000392,0.99996081)"
       style="font-style:normal;font-weight:normal;font-size:40.00154495px;line-height:125%;font-family:sans-serif;text-align:end;letter-spacing:0px;word-spacing:0px;text-anchor:end;display:inline;fill:#000000;fill-opacity:1;stroke:none;stroke-width:1px;stroke-linecap:butt;stroke-linejoin:miter;stroke-opacity:1"
       id="text6164-3-6-1">
      <path
         d="m 196.01144,139.21678 q 1.0767,0.28566 1.64801,1.01811 0.57131,0.72513 0.57131,1.81648 0,1.50884 -1.0181,2.37314 -1.01078,0.85696 -2.80529,0.85696 -0.75442,0 -1.53814,-0.13916 -0.78372,-0.13917 -1.53815,-0.40285 l 0,-1.47223 q 0.7471,0.3882 1.47223,0.57864 0.72512,0.19044 1.44292,0.19044 1.21587,0 1.86775,-0.54934 0.65188,-0.54934 0.65188,-1.58209 0,-0.95219 -0.65188,-1.50885 -0.65188,-0.56399 -1.7652,-0.56399 l -1.12798,0 0,-1.21586 1.12798,0 q 1.0181,0 1.58941,-0.4468 0.57132,-0.44679 0.57132,-1.24516 0,-0.84232 -0.53469,-1.28912 -0.52737,-0.45412 -1.50885,-0.45412 -0.65188,0 -1.34771,0.14649 -0.69583,0.14649 -1.45757,0.43947 l 0,-1.36235 q 0.88626,-0.23439 1.57476,-0.35158 0.69583,-0.11719 1.23052,-0.11719 1.59674,0 2.54893,0.80569 0.95951,0.79837 0.95951,2.12411 0,0.90091 -0.50539,1.50152 -0.49807,0.60061 -1.45758,0.84964 z"
         style="font-style:normal;font-variant:normal;font-weight:normal;font-stretch:normal;font-size:15.00057983px;font-family:monospace;-inkscape-font-specification:monospace;text-align:end;text-anchor:end;fill:#000000"
         id="path8618" />
      <path
         d="m 206.07531,140.97466 q 0,-1.56744 -0.49807,-2.36581 -0.49807,-0.79837 -1.47223,-0.79837 -0.98148,0 -1.48687,0.8057 -0.50539,0.79837 -0.50539,2.35848 0,1.5528 0.50539,2.35849 0.50539,0.8057 1.48687,0.8057 0.97416,0 1.47223,-0.79837 0.49807,-0.79837 0.49807,-2.36582 z m -3.96256,-3.06164 q 0.32228,-0.60061 0.88626,-0.92288 0.57132,-0.32228 1.31841,-0.32228 1.47955,0 2.3292,1.14262 0.84964,1.1353 0.84964,3.13489 0,2.02888 -0.85697,3.18616 -0.84964,1.14994 -2.33651,1.14994 -0.73245,0 -1.29644,-0.31495 -0.55666,-0.32228 -0.89359,-0.93021 l 0,1.03275 -1.34771,0 0,-11.39692 1.34771,0 0,4.24088 z"
         style="font-style:normal;font-variant:normal;font-weight:normal;font-stretch:normal;font-size:15.00057983px;font-family:monospace;-inkscape-font-specification:monospace;text-align:end;text-anchor:end;fill:#000000"
         id="path8620" />
    </g>
  </g>
  <g
     inkscape:groupmode="layer"
     id="layer3"
     inkscape:label="Screws"
     style="display:inline">
    <path
       style="opacity:1;fill:none;fill-opacity:1;stroke:#0000ff;stroke-width:0.35433072;stroke-linejoin:miter;stroke-miterlimit:4;stroke-dasharray:none;stroke-opacity:1"
       d="m 32.598425,451.77182 a 9.5669289,9.5669289 0 0 1 -9.566929,9.56693 9.5669289,9.5669289 0 0 1 -9.566929,-9.56693 9.5669289,9.5669289 0 0 1 9.566929,-9.56693 9.5669289,9.5669289 0 0 1 9.566929,9.56693 z"
       id="path5920" />
    <path
       style="display:inline;opacity:1;fill:none;fill-opacity:1;stroke:#0000ff;stroke-width:0.35433072;stroke-linejoin:miter;stroke-miterlimit:4;stroke-dasharray:none;stroke-opacity:1"
       d="m 32.598425,334.84268 a 9.5669289,9.5669289 0 0 1 -9.566929,9.56693 9.5669289,9.5669289 0 0 1 -9.566929,-9.56693 9.5669289,9.5669289 0 0 1 9.566929,-9.56693 9.5669289,9.5669289 0 0 1 9.566929,9.56693 z"
       id="path5920-3" />
    <path
       style="display:inline;opacity:1;fill:none;fill-opacity:1;stroke:#0000ff;stroke-width:0.35433072;stroke-linejoin:miter;stroke-miterlimit:4;stroke-dasharray:none;stroke-opacity:1"
       d="m 149.52756,334.84268 a 9.5669289,9.5669289 0 0 1 -9.56693,9.56693 9.5669289,9.5669289 0 0 1 -9.56693,-9.56693 9.5669289,9.5669289 0 0 1 9.56693,-9.56693 9.5669289,9.5669289 0 0 1 9.56693,9.56693 z"
       id="path5920-3-6" />
    <path
       style="display:inline;opacity:1;fill:none;fill-opacity:1;stroke:#0000ff;stroke-width:0.35433072;stroke-linejoin:miter;stroke-miterlimit:4;stroke-dasharray:none;stroke-opacity:1"
       d="m 149.52756,451.77182 a 9.5669289,9.5669289 0 0 1 -9.56693,9.56693 9.5669289,9.5669289 0 0 1 -9.56693,-9.56693 9.5669289,9.5669289 0 0 1 9.56693,-9.56693 9.5669289,9.5669289 0 0 1 9.56693,9.56693 z"
       id="path5920-3-6-5" />
    <path
       style="display:inline;opacity:1;fill:none;fill-opacity:1;stroke:#0000ff;stroke-width:0.35433072;stroke-linejoin:miter;stroke-miterlimit:4;stroke-dasharray:none;stroke-opacity:1"
       d="m 485.21483,13.464872 0,0.0176 -5.51367,9.54883 5.51367,9.550779 0,0.0176 0.01,0 11.03711,0 0,-0.006 0.01,0.006 5.52344,-9.568359 -5.52344,-9.56641 -0.01,0.006 0,-0.006 -11.03711,0 -0.01,0 z"
       id="rect5967"
       inkscape:connector-curvature="0" />
    <path
       style="display:inline;opacity:1;fill:none;fill-opacity:1;stroke:#0000ff;stroke-width:0.35433072;stroke-linejoin:miter;stroke-miterlimit:4;stroke-dasharray:none;stroke-opacity:1"
       d="m 602.14257,13.464872 0,0.0195 -5.51172,9.54688 5.51172,9.548819 0,0.0195 0.0117,0 11.03711,0 0,-0.006 0.01,0.006 5.52344,-9.568359 -5.52344,-9.5664 -0.01,0.006 0,-0.006 -11.03711,0 -0.0117,0 z"
       id="rect5967-30"
       inkscape:connector-curvature="0" />
    <path
       style="display:inline;opacity:1;fill:none;fill-opacity:1;stroke:#0000ff;stroke-width:0.35433072;stroke-linejoin:miter;stroke-miterlimit:4;stroke-dasharray:none;stroke-opacity:1"
       d="m 485.2246,130.39261 -0.002,0.002 -0.008,0 0,0.0156 -5.51367,9.55078 5.51367,9.54883 0,0.0176 0.01,0 11.03711,0 0,-0.006 0.01,0.006 5.52344,-9.5664 -5.52344,-9.56836 -0.01,0.006 0,-0.004 -11.0332,0 -0.004,-0.002 z"
       id="rect5967-30-6"
       inkscape:connector-curvature="0" />
    <path
       style="display:inline;opacity:1;fill:none;fill-opacity:1;stroke:#0000ff;stroke-width:0.35433072;stroke-linejoin:miter;stroke-miterlimit:4;stroke-dasharray:none;stroke-opacity:1"
       d="m 602.15429,130.39261 -0.002,0.002 -0.01,0 0,0.0176 -5.51172,9.54883 5.51172,9.54687 0,0.0195 0.0117,0 11.03711,0 0,-0.006 0.01,0.006 5.52344,-9.5664 -5.52344,-9.56836 -0.01,0.006 0,-0.004 -11.03321,0 -0.004,-0.002 z"
       id="rect5967-30-6-9"
       inkscape:connector-curvature="0" />
  </g>
</svg>
